<?xml version="1.0" standalone="no"?><!DOCTYPE svg PUBLIC "-//W3C//DTD SVG 1.1//EN" "http://www.w3.org/Graphics/SVG/1.1/DTD/svg11.dtd"><svg class="icon" width="200px" height="200.00px" viewBox="0 0 1024 1024" version="1.1" xmlns="http://www.w3.org/2000/svg"><path d="M389.84 483.37H252.95c-49.71 0-90-40.29-90-90V256.48c0-49.71 40.29-90 90-90h136.89c49.71 0 90 40.29 90 90v136.89c0 49.7-40.29 90-90 90zM389.84 902.59H252.95c-49.71 0-90-40.29-90-90V675.7c0-49.71 40.29-90 90-90h136.89c49.71 0 90 40.29 90 90v136.89c0 49.7-40.29 90-90 90zM821.69 902.59H684.8c-49.71 0-90-40.29-90-90V675.7c0-49.71 40.29-90 90-90h136.89c49.71 0 90 40.29 90 90v136.89c0 49.7-40.29 90-90 90zM689.61 468.59l-96.79-96.79c-35.15-35.15-35.15-92.13 0-127.28l96.79-96.79c35.15-35.15 92.13-35.15 127.28 0l96.79 96.79c35.15 35.15 35.15 92.13 0 127.28l-96.79 96.79c-35.15 35.15-92.13 35.15-127.28 0z" fill="#99D1FF" /><path d="M330.85 503.37H193.96c-60.65 0-110-49.35-110-110V256.48c0-60.65 49.35-110 110-110h136.89c60.65 0 110 49.35 110 110v136.89c0 60.65-49.35 110-110 110zM193.96 186.48c-38.6 0-70 31.4-70 70v136.89c0 38.6 31.4 70 70 70h136.89c38.6 0 70-31.4 70-70V256.48c0-38.6-31.4-70-70-70H193.96zM330.85 922.59H193.96c-60.65 0-110-49.35-110-110V675.7c0-60.65 49.35-110 110-110h136.89c60.65 0 110 49.35 110 110v136.89c0 60.65-49.35 110-110 110zM193.96 605.7c-38.6 0-70 31.4-70 70v136.89c0 38.6 31.4 70 70 70h136.89c38.6 0 70-31.4 70-70V675.7c0-38.6-31.4-70-70-70H193.96zM762.7 922.59H625.81c-60.65 0-110-49.35-110-110V675.7c0-60.65 49.35-110 110-110H762.7c60.65 0 110 49.35 110 110v136.89c0 60.65-49.35 110-110 110zM625.81 605.7c-38.6 0-70 31.4-70 70v136.89c0 38.6 31.4 70 70 70H762.7c38.6 0 70-31.4 70-70V675.7c0-38.6-31.4-70-70-70H625.81zM694.25 514.9c-28.17 0-56.34-10.72-77.78-32.17l-96.79-96.79c-20.78-20.78-32.22-48.4-32.22-77.78s11.44-57.01 32.22-77.78l96.79-96.79c42.89-42.89 112.67-42.89 155.56 0l96.79 96.79c20.78 20.78 32.22 48.4 32.22 77.78s-11.44 57.01-32.22 77.78l-96.79 96.79c-21.44 21.45-49.61 32.17-77.78 32.17z m-49.5-60.45c27.29 27.29 71.7 27.29 99 0l96.79-96.79c13.22-13.22 20.5-30.8 20.5-49.5s-7.28-36.28-20.5-49.5l-96.79-96.79c-27.29-27.29-71.7-27.29-99 0l-96.79 96.79c-13.22 13.22-20.5 30.8-20.5 49.5s7.28 36.28 20.5 49.5l96.79 96.79z" fill="#0072F0" /></svg>