<?xml version="1.0" standalone="no"?><!DOCTYPE svg PUBLIC "-//W3C//DTD SVG 1.1//EN" "http://www.w3.org/Graphics/SVG/1.1/DTD/svg11.dtd"><svg class="icon" width="200px" height="200.00px" viewBox="0 0 1024 1024" version="1.1" xmlns="http://www.w3.org/2000/svg"><path d="M646.4 992H377.6v-339.2c0-19.2 19.2-32 38.4-32h185.6c19.2 0 38.4 12.8 38.4 32v339.2h6.4z" fill="#BAD4FF" /><path d="M672 1011.2H358.4v-358.4c0-32 25.6-51.2 64-51.2h185.6c32 0 64 25.6 64 51.2v358.4z m-268.8-44.8h224v-313.6s-6.4-6.4-19.2-6.4H422.4c-12.8 0-19.2 6.4-19.2 6.4v313.6z" fill="#4E8CEE" /><path d="M512 6.4l505.6 454.4-32 32-76.8-70.4v595.2H115.2V428.8l-76.8 64-25.6-32L512 6.4zM857.6 384L512 64 160 384v588.8h704L857.6 384z" fill="#4E8CEE" /><path d="M915.2 1024H108.8V441.6l-70.4 64-38.4-44.8 6.4-6.4 492.8-448 6.4-6.4 6.4 6.4 512 454.4-38.4 44.8-70.4-64V1024z m-793.6-12.8H896V409.6l83.2 76.8 19.2-19.2L512 19.2 19.2 460.8l19.2 25.6 83.2-76.8v601.6z m748.8-32H147.2V384L512 51.2l352 320h6.4v608z m-704-12.8h691.2V384L512 76.8 166.4 390.4v576z" fill="#4E8CEE" /><path d="M390.4 403.2H217.6c-6.4 0-6.4 0-6.4 6.4v96h179.2c6.4 0 6.4 0 6.4-6.4l-6.4-96c6.4 6.4 6.4 0 0 0z" fill="#BAD4FF" /></svg>